<?xml version="1.0" encoding="utf-8"?>
<!-- Generator: Adobe Illustrator 17.0.0, SVG Export Plug-In . SVG Version: 6.00 Build 0)  -->
<!DOCTYPE svg PUBLIC "-//W3C//DTD SVG 1.1//EN" "http://www.w3.org/Graphics/SVG/1.1/DTD/svg11.dtd">
<svg version="1.1" id="Слой_1" xmlns="http://www.w3.org/2000/svg" xmlns:xlink="http://www.w3.org/1999/xlink" x="0px" y="0px"
	 width="500px" height="500px" viewBox="0 0 500 500" enable-background="new 0 0 500 500" xml:space="preserve">
<g>
	<g>
		<circle fill="none" stroke="#000000" stroke-width="14" stroke-miterlimit="10" cx="254.073" cy="280.12" r="126.153"/>
		
			<line fill="none" stroke="#000000" stroke-width="3" stroke-miterlimit="10" x1="254.073" y1="153.967" x2="254.073" y2="406.274"/>
		<line fill="none" stroke="#000000" stroke-width="3" stroke-miterlimit="10" x1="128.042" y1="274.74" x2="380.104" y2="274.74"/>
		<circle fill="none" stroke="#000000" stroke-miterlimit="10" cx="253.379" cy="275.433" r="62.322"/>
	</g>
	<text transform="matrix(1 0 0 1 22.5962 305.5187)" font-family="'Haettenschweiler'" font-size="119.5286">ох</text>
	<text transform="matrix(1 0 0 1 395.6149 305.5185)" font-family="'Haettenschweiler'" font-size="119.5286">та</text>
</g>
<g>
	<g>
		<path d="M154.999,162.301c2.49,2.761,3.735,4.141,6.225,6.902c-3.355,3.034-4.987,4.632-8.141,7.992
			c-11.64-10.93-23.279-21.861-34.919-32.791c3.22-3.428,4.871-5.08,8.248-8.257c0.815,0.112,1.221,0.171,2.031,0.292
			c0.976-2.608,2.781-5.069,5.391-7.27c2.637-2.223,5.481-3.768,8.448-4.624c2.965-0.854,5.051-0.365,6.272,1.329
			c5.534,7.681,11.067,15.362,16.601,23.043c0.969,1.345,1.053,2.915,0.314,4.715c-0.739,1.802-2.025,3.422-3.873,4.93
			C159.036,160.652,156.87,161.925,154.999,162.301z M153.945,154.616c-6.349-7.456-9.524-11.183-15.873-18.639
			c-0.78-0.916-1.813-0.832-3.08,0.281c-1.295,1.137-1.528,2.168-0.722,3.061c6.577,7.292,9.865,10.938,16.441,18.229
			c0.775,0.86,1.7,0.797,2.792-0.162C154.573,156.447,154.726,155.532,153.945,154.616z"/>
		<path d="M170.918,150.898c-7.444-10.876-14.887-21.751-22.331-32.627c5.288-3.629,7.996-5.316,13.513-8.437
			c2.399,4.246,3.599,6.369,5.998,10.615c6.559-3.71,11.472-5.392,14.432-5.609c2.96-0.217,5.148,1.453,6.601,4.881
			c1.568,3.7,2.351,5.551,3.919,9.251c1.284,3.031,1.033,5.581-0.643,7.697c-1.677,2.117-5.341,4.47-10.871,7.599
			C177.202,146.72,175.074,148.046,170.918,150.898z M180.748,133.792c-1.533-2.903-2.299-4.355-3.832-7.258
			c-0.805-1.526-2.618-1.571-5.384-0.007c2.634,4.661,3.951,6.992,6.584,11.653C180.661,136.742,181.554,135.319,180.748,133.792z
			 M210.469,131.832c-4.799,1.47-7.176,2.31-11.858,4.201c-4.944-12.217-9.888-24.435-14.831-36.652
			c5.95-2.403,8.97-3.471,15.069-5.339C202.722,106.638,206.596,119.235,210.469,131.832z"/>
		<path d="M222.706,127.299c-0.267,0.599-0.398,0.899-0.658,1.5c-3.345,0.731-5.009,1.146-8.314,2.074
			c-3.246-11.503-6.492-23.007-9.737-34.51c-2.521-8.936,1.675-15.193,12.85-17.303c1.357-0.256,3.376-0.556,6.05-0.838
			c2.71-0.286,4.749-0.484,6.114-0.654c2.417-0.302,4.278-0.628,5.59-1.028c0.32,3.321,0.48,4.982,0.8,8.303
			c-0.967,0.526-2.785,0.918-5.455,1.254c-0.935,0.117-2.327,0.241-4.177,0.401c-1.85,0.16-3.242,0.335-4.173,0.494
			c-1.996,0.342-3.246,0.966-3.746,1.825c-0.5,0.86,0.016,5.221,0.045,5.231c0.271,0.096,4.349-2.341,8.314-2.935
			c2.698-0.404,5.128-0.185,7.232,0.622c2.103,0.808,3.208,2.04,3.359,3.645c0.934,9.911,1.4,14.867,2.334,24.778
			c0.185,1.966-0.709,3.618-2.605,5.012c-1.896,1.394-4.211,2.287-7.007,2.749C227.167,128.31,224.92,128.107,222.706,127.299z
			 M227.257,120.257c-1.431-8.281-2.147-12.421-3.578-20.701c-0.205-1.185-1.063-1.653-2.567-1.375
			c-1.536,0.284-2.188,1.009-1.961,2.145c1.654,8.267,2.481,12.4,4.136,20.667c0.236,1.18,1.012,1.634,2.334,1.389
			C226.914,122.142,227.462,121.443,227.257,120.257z"/>
		<path d="M269.331,126.287c-3.962-0.433-5.95-0.582-9.929-0.745c0.025-0.612,0.038-0.919,0.063-1.531
			c-0.908,1.349-3.325,1.925-7.286,1.957c-6.113,0.05-9.309-1.698-9.604-5.819c-0.226-3.165-0.339-4.748-0.565-7.913
			c-0.126-1.766,0.578-3.369,2.176-4.777c1.597-1.407,4.907-3.253,10.131-5.19c3.022-1.12,4.596-1.957,4.618-2.637
			c0.076-2.341,0.114-3.512,0.189-5.853c0.042-1.293-0.73-1.97-2.318-2c-1.815-0.034-2.728,1.547-2.74,4.701
			c-0.002,0.567,0.028,1.425,0.129,2.52c0.102,1.099,0.176,1.954,0.173,2.52c-5.056-0.029-7.587,0.05-12.633,0.394
			c-0.217-3.152-0.325-4.728-0.541-7.88c-0.366-5.321,5.143-8.63,16.535-8.366c10.655,0.248,15.649,3.818,15.041,9.346
			C271.623,105.439,270.477,115.863,269.331,126.287z M258.337,118.11c0.132-4.07,0.197-6.105,0.329-10.174
			c-2.908,0.451-4.344,1.461-4.353,2.914c-0.017,2.873-0.025,4.31-0.042,7.183c-0.007,1.203,0.687,1.803,2.081,1.831
			C257.637,119.889,258.298,119.313,258.337,118.11z"/>
		<path d="M304.772,134.719c-4.569-1.714-6.884-2.472-11.555-3.791c3.02-10.647,6.04-21.294,9.06-31.942
			c-2.068-0.584-3.105-0.86-5.186-1.381c-2.681,10.66-4.022,15.99-6.703,26.65c-1.019,4.051-4.56,5.214-10.72,4.089
			c-2.693-0.492-5.079-1.036-7.175-1.677c0.358-2.714,0.538-4.071,0.896-6.785c0.836,0.408,1.81,0.692,2.928,0.861
			c0.953,0.144,1.6,0.066,1.946-0.245c0.346-0.311,0.638-1.171,0.875-2.582c1.622-9.832,3.238-19.665,4.849-29.499
			c11.833,1.967,23.472,5.081,34.704,9.294C314.051,110.047,309.411,122.383,304.772,134.719z"/>
		<path d="M336.856,151.601c-4.535-3.17-6.865-4.634-11.617-7.324c0.418-6.479,0.492-9.759,0.36-16.368
			c-2.628,5.22-3.942,7.83-6.569,13.05c-4.257-2.143-6.423-3.122-10.807-4.896c4.951-12.215,9.901-24.429,14.852-36.644
			c5.572,2.254,8.324,3.498,13.734,6.222c-2.309,4.586-3.463,6.879-5.771,11.465c7.022-4.368,11.855-6.211,13.905-6.073
			c2.049,0.139,4.038,0.792,5.925,1.955c2.504,1.544,4.494,3.052,5.974,4.46c-1.573,2.34-2.359,3.51-3.932,5.851
			c-1.581-1.065-2.867-1.522-3.832-1.399c-0.965,0.123-4.627,1.505-10.596,4.579C338.49,136.71,338.157,141.759,336.856,151.601z"/>
		<path d="M359.78,171.462c-2.959-3.151-4.483-4.659-7.609-7.54c0.415-0.451,0.622-0.677,1.037-1.128
			c-1.606,0.403-3.942-0.834-7.163-3.506c-4.973-4.124-6.404-7.574-3.988-10.925c1.856-2.575,2.784-3.862,4.64-6.436
			c1.036-1.437,2.632-2.196,4.824-2.202c2.19-0.006,6.039,0.798,11.514,2.889c3.167,1.21,4.984,1.661,5.44,1.155
			c1.569-1.74,2.353-2.609,3.922-4.349c0.866-0.961,0.676-2.013-0.592-3.128c-1.449-1.274-3.205-0.686-5.246,1.719
			c-0.367,0.433-0.896,1.11-1.518,2.016c-0.625,0.91-1.116,1.615-1.483,2.047c-4.073-3.481-6.165-5.129-10.438-8.236
			c1.855-2.558,2.783-3.837,4.638-6.396c3.132-4.319,9.663-3.237,18.729,4.807c8.479,7.524,10.28,13.871,6.226,17.678
			C375.068,157.106,367.424,164.284,359.78,171.462z M356.092,157.498c2.727-3.024,4.091-4.536,6.818-7.56
			c-2.65-1.663-4.462-1.868-5.404-0.762c-1.864,2.187-2.796,3.281-4.66,5.468c-0.78,0.916-0.606,1.849,0.507,2.828
			C354.378,158.375,355.286,158.391,356.092,157.498z"/>
	</g>
</g>
</svg>
